<svg xmlns="http://www.w3.org/2000/svg" width="1276" height="840" viewBox="0 0 1276 840">
<defs><radialGradient id="blob0" cx="18%" cy="12%" r="34%"><stop offset="0%" stop-color="#FAB283" stop-opacity="0.1"/><stop offset="100%" stop-color="#FAB283" stop-opacity="0"/></radialGradient><radialGradient id="blob1" cx="40%" cy="52%" r="34%"><stop offset="0%" stop-color="#9D7CD8" stop-opacity="0.085"/><stop offset="100%" stop-color="#9D7CD8" stop-opacity="0"/></radialGradient><radialGradient id="blob2" cx="62%" cy="12%" r="34%"><stop offset="0%" stop-color="#56B6C2" stop-opacity="0.07"/><stop offset="100%" stop-color="#56B6C2" stop-opacity="0"/></radialGradient><radialGradient id="blob3" cx="84%" cy="52%" r="34%"><stop offset="0%" stop-color="#FF7EDB" stop-opacity="0.05500000000000001"/><stop offset="100%" stop-color="#FF7EDB" stop-opacity="0"/></radialGradient></defs>
<rect width="100%" height="100%" fill="#0a0a0a"/>
<rect width="100%" height="100%" fill="url(#blob0)"/><rect width="100%" height="100%" fill="url(#blob1)"/><rect width="100%" height="100%" fill="url(#blob2)"/><rect width="100%" height="100%" fill="url(#blob3)"/>
<text x="20" y="58" font-family="-apple-system,Segoe UI,Microsoft YaHei,PingFang SC,sans-serif" font-size="31" font-weight="700" fill="#f0f0f0">All 34 themes · official opencode colors</text>
<text x="20" y="86" font-family="-apple-system,Segoe UI,Microsoft YaHei,PingFang SC,sans-serif" font-size="18.5" fill="#8b8b95">click any theme — the whole interface re-skins instantly</text>
<g><rect x="20" y="124" width="196" height="106" rx="14" fill="rgba(255,255,255,0.045)" stroke="rgba(255,255,255,0.09)"/><rect x="20" y="124" width="196" height="3" rx="1.5" fill="#A277FF"/><text x="34" y="155" font-family="ui-monospace,SFMono-Regular,Menlo,Consolas,monospace" font-size="18.5" font-weight="600" fill="#EDECEE">aura</text><rect x="34" y="214" width="30" height="4" rx="2" fill="#A277FF"/><rect x="68" y="214" width="30" height="4" rx="2" fill="#A277FF"/><rect x="102" y="214" width="30" height="4" rx="2" fill="#FF6767"/><rect x="136" y="214" width="30" height="4" rx="2" fill="#FFCA85"/><rect x="170" y="214" width="30" height="4" rx="2" fill="#61FFCA"/></g><g><rect x="228" y="124" width="196" height="106" rx="14" fill="rgba(255,255,255,0.045)" stroke="rgba(255,255,255,0.09)"/><rect x="228" y="124" width="196" height="3" rx="1.5" fill="#59C2FF"/><text x="242" y="155" font-family="ui-monospace,SFMono-Regular,Menlo,Consolas,monospace" font-size="18.5" font-weight="600" fill="#BFBDB6">ayu</text><rect x="242" y="214" width="30" height="4" rx="2" fill="#59C2FF"/><rect x="276" y="214" width="30" height="4" rx="2" fill="#E6B450"/><rect x="310" y="214" width="30" height="4" rx="2" fill="#D95757"/><rect x="344" y="214" width="30" height="4" rx="2" fill="#E6B673"/><rect x="378" y="214" width="30" height="4" rx="2" fill="#7FD962"/></g><g><rect x="436" y="124" width="196" height="106" rx="14" fill="rgba(255,255,255,0.045)" stroke="rgba(255,255,255,0.09)"/><rect x="436" y="124" width="196" height="3" rx="1.5" fill="#33B1FF"/><text x="450" y="155" font-family="ui-monospace,SFMono-Regular,Menlo,Consolas,monospace" font-size="18.5" font-weight="600" fill="#F2F4F8">carbonfox</text><rect x="450" y="214" width="30" height="4" rx="2" fill="#33B1FF"/><rect x="484" y="214" width="30" height="4" rx="2" fill="#FF7EB6"/><rect x="518" y="214" width="30" height="4" rx="2" fill="#EE5396"/><rect x="552" y="214" width="30" height="4" rx="2" fill="#F1C21B"/><rect x="586" y="214" width="30" height="4" rx="2" fill="#25BE6A"/></g><g><rect x="644" y="124" width="196" height="106" rx="14" fill="rgba(255,255,255,0.045)" stroke="rgba(255,255,255,0.09)"/><rect x="644" y="124" width="196" height="3" rx="1.5" fill="#89B4FA"/><text x="658" y="155" font-family="ui-monospace,SFMono-Regular,Menlo,Consolas,monospace" font-size="18.5" font-weight="600" fill="#CDD6F4">catppuccin</text><rect x="658" y="214" width="30" height="4" rx="2" fill="#89B4FA"/><rect x="692" y="214" width="30" height="4" rx="2" fill="#F5C2E7"/><rect x="726" y="214" width="30" height="4" rx="2" fill="#F38BA8"/><rect x="760" y="214" width="30" height="4" rx="2" fill="#F9E2AF"/><rect x="794" y="214" width="30" height="4" rx="2" fill="#A6E3A1"/></g><g><rect x="852" y="124" width="196" height="106" rx="14" fill="rgba(255,255,255,0.045)" stroke="rgba(255,255,255,0.09)"/><rect x="852" y="124" width="196" height="3" rx="1.5" fill="#8DA4E2"/><text x="866" y="155" font-family="ui-monospace,SFMono-Regular,Menlo,Consolas,monospace" font-size="18.5" font-weight="600" fill="#C6D0F5">catppuccin-frappe</text><rect x="866" y="214" width="30" height="4" rx="2" fill="#8DA4E2"/><rect x="900" y="214" width="30" height="4" rx="2" fill="#F4B8E4"/><rect x="934" y="214" width="30" height="4" rx="2" fill="#E78284"/><rect x="968" y="214" width="30" height="4" rx="2" fill="#E5C890"/><rect x="1002" y="214" width="30" height="4" rx="2" fill="#A6D189"/></g><g><rect x="1060" y="124" width="196" height="106" rx="14" fill="rgba(255,255,255,0.045)" stroke="rgba(255,255,255,0.09)"/><rect x="1060" y="124" width="196" height="3" rx="1.5" fill="#8AADF4"/><text x="1074" y="155" font-family="ui-monospace,SFMono-Regular,Menlo,Consolas,monospace" font-size="18.5" font-weight="600" fill="#CAD3F5">catppuccin-macchiato</text><rect x="1074" y="214" width="30" height="4" rx="2" fill="#8AADF4"/><rect x="1108" y="214" width="30" height="4" rx="2" fill="#F5BDE6"/><rect x="1142" y="214" width="30" height="4" rx="2" fill="#ED8796"/><rect x="1176" y="214" width="30" height="4" rx="2" fill="#EED49F"/><rect x="1210" y="214" width="30" height="4" rx="2" fill="#A6DA95"/></g><g><rect x="20" y="242" width="196" height="106" rx="14" fill="rgba(255,255,255,0.045)" stroke="rgba(255,255,255,0.09)"/><rect x="20" y="242" width="196" height="3" rx="1.5" fill="#0088FF"/><text x="34" y="273" font-family="ui-monospace,SFMono-Regular,Menlo,Consolas,monospace" font-size="18.5" font-weight="600" fill="#FFFFFF">cobalt2</text><rect x="34" y="332" width="30" height="4" rx="2" fill="#0088FF"/><rect x="68" y="332" width="30" height="4" rx="2" fill="#2AFFDF"/><rect x="102" y="332" width="30" height="4" rx="2" fill="#FF0088"/><rect x="136" y="332" width="30" height="4" rx="2" fill="#FFC600"/><rect x="170" y="332" width="30" height="4" rx="2" fill="#9EFF80"/></g><g><rect x="228" y="242" width="196" height="106" rx="14" fill="rgba(255,255,255,0.045)" stroke="rgba(255,255,255,0.09)"/><rect x="228" y="242" width="196" height="3" rx="1.5" fill="#88C0D0"/><text x="242" y="273" font-family="ui-monospace,SFMono-Regular,Menlo,Consolas,monospace" font-size="18.5" font-weight="600" fill="#E4E4E4">cursor</text><rect x="242" y="332" width="30" height="4" rx="2" fill="#88C0D0"/><rect x="276" y="332" width="30" height="4" rx="2" fill="#88C0D0"/><rect x="310" y="332" width="30" height="4" rx="2" fill="#E34671"/><rect x="344" y="332" width="30" height="4" rx="2" fill="#F1B467"/><rect x="378" y="332" width="30" height="4" rx="2" fill="#3FA266"/></g><g><rect x="436" y="242" width="196" height="106" rx="14" fill="rgba(255,255,255,0.045)" stroke="rgba(255,255,255,0.09)"/><rect x="436" y="242" width="196" height="3" rx="1.5" fill="#BD93F9"/><text x="450" y="273" font-family="ui-monospace,SFMono-Regular,Menlo,Consolas,monospace" font-size="18.5" font-weight="600" fill="#F8F8F2">dracula</text><rect x="450" y="332" width="30" height="4" rx="2" fill="#BD93F9"/><rect x="484" y="332" width="30" height="4" rx="2" fill="#8BE9FD"/><rect x="518" y="332" width="30" height="4" rx="2" fill="#FF5555"/><rect x="552" y="332" width="30" height="4" rx="2" fill="#F1FA8C"/><rect x="586" y="332" width="30" height="4" rx="2" fill="#50FA7B"/></g><g><rect x="644" y="242" width="196" height="106" rx="14" fill="rgba(255,255,255,0.045)" stroke="rgba(255,255,255,0.09)"/><rect x="644" y="242" width="196" height="3" rx="1.5" fill="#A7C080"/><text x="658" y="273" font-family="ui-monospace,SFMono-Regular,Menlo,Consolas,monospace" font-size="18.5" font-weight="600" fill="#D3C6AA">everforest</text><rect x="658" y="332" width="30" height="4" rx="2" fill="#A7C080"/><rect x="692" y="332" width="30" height="4" rx="2" fill="#D699B6"/><rect x="726" y="332" width="30" height="4" rx="2" fill="#E67E80"/><rect x="760" y="332" width="30" height="4" rx="2" fill="#E69875"/><rect x="794" y="332" width="30" height="4" rx="2" fill="#A7C080"/></g><g><rect x="852" y="242" width="196" height="106" rx="14" fill="rgba(255,255,255,0.045)" stroke="rgba(255,255,255,0.09)"/><rect x="852" y="242" width="196" height="3" rx="1.5" fill="#DA702C"/><text x="866" y="273" font-family="ui-monospace,SFMono-Regular,Menlo,Consolas,monospace" font-size="18.5" font-weight="600" fill="#CECDC3">flexoki</text><rect x="866" y="332" width="30" height="4" rx="2" fill="#DA702C"/><rect x="900" y="332" width="30" height="4" rx="2" fill="#8B7EC8"/><rect x="934" y="332" width="30" height="4" rx="2" fill="#D14D41"/><rect x="968" y="332" width="30" height="4" rx="2" fill="#DA702C"/><rect x="1002" y="332" width="30" height="4" rx="2" fill="#879A39"/></g><g><rect x="1060" y="242" width="196" height="106" rx="14" fill="rgba(255,255,255,0.045)" stroke="rgba(255,255,255,0.09)"/><rect x="1060" y="242" width="196" height="3" rx="1.5" fill="#58A6FF"/><text x="1074" y="273" font-family="ui-monospace,SFMono-Regular,Menlo,Consolas,monospace" font-size="18.5" font-weight="600" fill="#C9D1D9">github</text><rect x="1074" y="332" width="30" height="4" rx="2" fill="#58A6FF"/><rect x="1108" y="332" width="30" height="4" rx="2" fill="#39C5CF"/><rect x="1142" y="332" width="30" height="4" rx="2" fill="#F85149"/><rect x="1176" y="332" width="30" height="4" rx="2" fill="#E3B341"/><rect x="1210" y="332" width="30" height="4" rx="2" fill="#3FB950"/></g><g><rect x="20" y="360" width="196" height="106" rx="14" fill="rgba(255,255,255,0.045)" stroke="rgba(255,255,255,0.09)"/><rect x="20" y="360" width="196" height="3" rx="1.5" fill="#83A598"/><text x="34" y="391" font-family="ui-monospace,SFMono-Regular,Menlo,Consolas,monospace" font-size="18.5" font-weight="600" fill="#EBDBB2">gruvbox</text><rect x="34" y="450" width="30" height="4" rx="2" fill="#83A598"/><rect x="68" y="450" width="30" height="4" rx="2" fill="#8EC07C"/><rect x="102" y="450" width="30" height="4" rx="2" fill="#FB4934"/><rect x="136" y="450" width="30" height="4" rx="2" fill="#FE8019"/><rect x="170" y="450" width="30" height="4" rx="2" fill="#B8BB26"/></g><g><rect x="228" y="360" width="196" height="106" rx="14" fill="rgba(255,255,255,0.045)" stroke="rgba(255,255,255,0.09)"/><rect x="228" y="360" width="196" height="3" rx="1.5" fill="#7E9CD8"/><text x="242" y="391" font-family="ui-monospace,SFMono-Regular,Menlo,Consolas,monospace" font-size="18.5" font-weight="600" fill="#DCD7BA">kanagawa</text><rect x="242" y="450" width="30" height="4" rx="2" fill="#7E9CD8"/><rect x="276" y="450" width="30" height="4" rx="2" fill="#D27E99"/><rect x="310" y="450" width="30" height="4" rx="2" fill="#E82424"/><rect x="344" y="450" width="30" height="4" rx="2" fill="#D7A657"/><rect x="378" y="450" width="30" height="4" rx="2" fill="#98BB6C"/></g><g><rect x="436" y="360" width="196" height="106" rx="14" fill="rgba(255,255,255,0.045)" stroke="rgba(255,255,255,0.09)"/><rect x="436" y="360" width="196" height="3" rx="1.5" fill="#EC5B2B"/><text x="450" y="391" font-family="ui-monospace,SFMono-Regular,Menlo,Consolas,monospace" font-size="18.5" font-weight="600" fill="#EEEEEE">lucent-orng</text><rect x="450" y="450" width="30" height="4" rx="2" fill="#EC5B2B"/><rect x="484" y="450" width="30" height="4" rx="2" fill="#FFF7F1"/><rect x="518" y="450" width="30" height="4" rx="2" fill="#E06C75"/><rect x="552" y="450" width="30" height="4" rx="2" fill="#EC5B2B"/><rect x="586" y="450" width="30" height="4" rx="2" fill="#6BA1E6"/></g><g><rect x="644" y="360" width="196" height="106" rx="14" fill="rgba(255,255,255,0.045)" stroke="rgba(255,255,255,0.09)"/><rect x="644" y="360" width="196" height="3" rx="1.5" fill="#82AAFF"/><text x="658" y="391" font-family="ui-monospace,SFMono-Regular,Menlo,Consolas,monospace" font-size="18.5" font-weight="600" fill="#EEFFFF">material</text><rect x="658" y="450" width="30" height="4" rx="2" fill="#82AAFF"/><rect x="692" y="450" width="30" height="4" rx="2" fill="#89DDFF"/><rect x="726" y="450" width="30" height="4" rx="2" fill="#F07178"/><rect x="760" y="450" width="30" height="4" rx="2" fill="#FFCB6B"/><rect x="794" y="450" width="30" height="4" rx="2" fill="#C3E88D"/></g><g><rect x="852" y="360" width="196" height="106" rx="14" fill="rgba(255,255,255,0.045)" stroke="rgba(255,255,255,0.09)"/><rect x="852" y="360" width="196" height="3" rx="1.5" fill="#2EFF6A"/><text x="866" y="391" font-family="ui-monospace,SFMono-Regular,Menlo,Consolas,monospace" font-size="18.5" font-weight="600" fill="#62FF94">matrix</text><rect x="866" y="450" width="30" height="4" rx="2" fill="#2EFF6A"/><rect x="900" y="450" width="30" height="4" rx="2" fill="#C770FF"/><rect x="934" y="450" width="30" height="4" rx="2" fill="#FF4B4B"/><rect x="968" y="450" width="30" height="4" rx="2" fill="#E6FF57"/><rect x="1002" y="450" width="30" height="4" rx="2" fill="#62FF94"/></g><g><rect x="1060" y="360" width="196" height="106" rx="14" fill="rgba(255,255,255,0.045)" stroke="rgba(255,255,255,0.09)"/><rect x="1060" y="360" width="196" height="3" rx="1.5" fill="#8DA4F5"/><text x="1074" y="391" font-family="ui-monospace,SFMono-Regular,Menlo,Consolas,monospace" font-size="18.5" font-weight="600" fill="#DDDDE5">mercury</text><rect x="1074" y="450" width="30" height="4" rx="2" fill="#8DA4F5"/><rect x="1108" y="450" width="30" height="4" rx="2" fill="#8DA4F5"/><rect x="1142" y="450" width="30" height="4" rx="2" fill="#FC92B4"/><rect x="1176" y="450" width="30" height="4" rx="2" fill="#FC9B6F"/><rect x="1210" y="450" width="30" height="4" rx="2" fill="#77C599"/></g><g><rect x="20" y="478" width="196" height="106" rx="14" fill="rgba(255,255,255,0.045)" stroke="rgba(255,255,255,0.09)"/><rect x="20" y="478" width="196" height="3" rx="1.5" fill="#66D9EF"/><text x="34" y="509" font-family="ui-monospace,SFMono-Regular,Menlo,Consolas,monospace" font-size="18.5" font-weight="600" fill="#F8F8F2">monokai</text><rect x="34" y="568" width="30" height="4" rx="2" fill="#66D9EF"/><rect x="68" y="568" width="30" height="4" rx="2" fill="#A6E22E"/><rect x="102" y="568" width="30" height="4" rx="2" fill="#F92672"/><rect x="136" y="568" width="30" height="4" rx="2" fill="#E6DB74"/><rect x="170" y="568" width="30" height="4" rx="2" fill="#A6E22E"/></g><g><rect x="228" y="478" width="196" height="106" rx="14" fill="rgba(255,255,255,0.045)" stroke="rgba(255,255,255,0.09)"/><rect x="228" y="478" width="196" height="3" rx="1.5" fill="#82AAFF"/><text x="242" y="509" font-family="ui-monospace,SFMono-Regular,Menlo,Consolas,monospace" font-size="18.5" font-weight="600" fill="#D6DEEB">nightowl</text><rect x="242" y="568" width="30" height="4" rx="2" fill="#82AAFF"/><rect x="276" y="568" width="30" height="4" rx="2" fill="#C792EA"/><rect x="310" y="568" width="30" height="4" rx="2" fill="#EF5350"/><rect x="344" y="568" width="30" height="4" rx="2" fill="#ECC48D"/><rect x="378" y="568" width="30" height="4" rx="2" fill="#C5E478"/></g><g><rect x="436" y="478" width="196" height="106" rx="14" fill="rgba(255,255,255,0.045)" stroke="rgba(255,255,255,0.09)"/><rect x="436" y="478" width="196" height="3" rx="1.5" fill="#88C0D0"/><text x="450" y="509" font-family="ui-monospace,SFMono-Regular,Menlo,Consolas,monospace" font-size="18.5" font-weight="600" fill="#ECEFF4">nord</text><rect x="450" y="568" width="30" height="4" rx="2" fill="#88C0D0"/><rect x="484" y="568" width="30" height="4" rx="2" fill="#8FBCBB"/><rect x="518" y="568" width="30" height="4" rx="2" fill="#BF616A"/><rect x="552" y="568" width="30" height="4" rx="2" fill="#D08770"/><rect x="586" y="568" width="30" height="4" rx="2" fill="#A3BE8C"/></g><g><rect x="644" y="478" width="196" height="106" rx="14" fill="rgba(255,255,255,0.045)" stroke="rgba(255,255,255,0.09)"/><rect x="644" y="478" width="196" height="3" rx="1.5" fill="#61AFEF"/><text x="658" y="509" font-family="ui-monospace,SFMono-Regular,Menlo,Consolas,monospace" font-size="18.5" font-weight="600" fill="#ABB2BF">one-dark</text><rect x="658" y="568" width="30" height="4" rx="2" fill="#61AFEF"/><rect x="692" y="568" width="30" height="4" rx="2" fill="#56B6C2"/><rect x="726" y="568" width="30" height="4" rx="2" fill="#E06C75"/><rect x="760" y="568" width="30" height="4" rx="2" fill="#E5C07B"/><rect x="794" y="568" width="30" height="4" rx="2" fill="#98C379"/></g><g><rect x="852" y="478" width="196" height="106" rx="14" fill="rgba(255,255,255,0.045)" stroke="rgba(255,255,255,0.09)"/><rect x="852" y="478" width="196" height="3" rx="1.5" fill="#FAB283"/><text x="866" y="509" font-family="ui-monospace,SFMono-Regular,Menlo,Consolas,monospace" font-size="18.5" font-weight="600" fill="#EEEEEE">opencode</text><rect x="866" y="568" width="30" height="4" rx="2" fill="#FAB283"/><rect x="900" y="568" width="30" height="4" rx="2" fill="#9D7CD8"/><rect x="934" y="568" width="30" height="4" rx="2" fill="#E06C75"/><rect x="968" y="568" width="30" height="4" rx="2" fill="#F5A742"/><rect x="1002" y="568" width="30" height="4" rx="2" fill="#7FD88F"/></g><g><rect x="1060" y="478" width="196" height="106" rx="14" fill="rgba(255,255,255,0.045)" stroke="rgba(255,255,255,0.09)"/><rect x="1060" y="478" width="196" height="3" rx="1.5" fill="#EC5B2B"/><text x="1074" y="509" font-family="ui-monospace,SFMono-Regular,Menlo,Consolas,monospace" font-size="18.5" font-weight="600" fill="#EEEEEE">orng</text><rect x="1074" y="568" width="30" height="4" rx="2" fill="#EC5B2B"/><rect x="1108" y="568" width="30" height="4" rx="2" fill="#FFF7F1"/><rect x="1142" y="568" width="30" height="4" rx="2" fill="#E06C75"/><rect x="1176" y="568" width="30" height="4" rx="2" fill="#EC5B2B"/><rect x="1210" y="568" width="30" height="4" rx="2" fill="#6BA1E6"/></g><g><rect x="20" y="596" width="196" height="106" rx="14" fill="rgba(255,255,255,0.045)" stroke="rgba(255,255,255,0.09)"/><rect x="20" y="596" width="196" height="3" rx="1.5" fill="#2DD5B7"/><text x="34" y="627" font-family="ui-monospace,SFMono-Regular,Menlo,Consolas,monospace" font-size="18.5" font-weight="600" fill="#C1C497">osaka-jade</text><rect x="34" y="686" width="30" height="4" rx="2" fill="#2DD5B7"/><rect x="68" y="686" width="30" height="4" rx="2" fill="#549E6A"/><rect x="102" y="686" width="30" height="4" rx="2" fill="#FF5345"/><rect x="136" y="686" width="30" height="4" rx="2" fill="#E5C736"/><rect x="170" y="686" width="30" height="4" rx="2" fill="#549E6A"/></g><g><rect x="228" y="596" width="196" height="106" rx="14" fill="rgba(255,255,255,0.045)" stroke="rgba(255,255,255,0.09)"/><rect x="228" y="596" width="196" height="3" rx="1.5" fill="#82AAFF"/><text x="242" y="627" font-family="ui-monospace,SFMono-Regular,Menlo,Consolas,monospace" font-size="18.5" font-weight="600" fill="#A6ACCD">palenight</text><rect x="242" y="686" width="30" height="4" rx="2" fill="#82AAFF"/><rect x="276" y="686" width="30" height="4" rx="2" fill="#89DDFF"/><rect x="310" y="686" width="30" height="4" rx="2" fill="#F07178"/><rect x="344" y="686" width="30" height="4" rx="2" fill="#FFCB6B"/><rect x="378" y="686" width="30" height="4" rx="2" fill="#C3E88D"/></g><g><rect x="436" y="596" width="196" height="106" rx="14" fill="rgba(255,255,255,0.045)" stroke="rgba(255,255,255,0.09)"/><rect x="436" y="596" width="196" height="3" rx="1.5" fill="#9CCFD8"/><text x="450" y="627" font-family="ui-monospace,SFMono-Regular,Menlo,Consolas,monospace" font-size="18.5" font-weight="600" fill="#E0DEF4">rosepine</text><rect x="450" y="686" width="30" height="4" rx="2" fill="#9CCFD8"/><rect x="484" y="686" width="30" height="4" rx="2" fill="#EBBCBA"/><rect x="518" y="686" width="30" height="4" rx="2" fill="#EB6F92"/><rect x="552" y="686" width="30" height="4" rx="2" fill="#F6C177"/><rect x="586" y="686" width="30" height="4" rx="2" fill="#31748F"/></g><g><rect x="644" y="596" width="196" height="106" rx="14" fill="rgba(255,255,255,0.045)" stroke="rgba(255,255,255,0.09)"/><rect x="644" y="596" width="196" height="3" rx="1.5" fill="#268BD2"/><text x="658" y="627" font-family="ui-monospace,SFMono-Regular,Menlo,Consolas,monospace" font-size="18.5" font-weight="600" fill="#839496">solarized</text><rect x="658" y="686" width="30" height="4" rx="2" fill="#268BD2"/><rect x="692" y="686" width="30" height="4" rx="2" fill="#2AA198"/><rect x="726" y="686" width="30" height="4" rx="2" fill="#DC322F"/><rect x="760" y="686" width="30" height="4" rx="2" fill="#B58900"/><rect x="794" y="686" width="30" height="4" rx="2" fill="#859900"/></g><g><rect x="852" y="596" width="196" height="106" rx="14" fill="rgba(255,255,255,0.045)" stroke="rgba(255,255,255,0.09)"/><rect x="852" y="596" width="196" height="3" rx="1.5" fill="#36F9F6"/><text x="866" y="627" font-family="ui-monospace,SFMono-Regular,Menlo,Consolas,monospace" font-size="18.5" font-weight="600" fill="#FFFFFF">synthwave84</text><rect x="866" y="686" width="30" height="4" rx="2" fill="#36F9F6"/><rect x="900" y="686" width="30" height="4" rx="2" fill="#B084EB"/><rect x="934" y="686" width="30" height="4" rx="2" fill="#FE4450"/><rect x="968" y="686" width="30" height="4" rx="2" fill="#FEDE5D"/><rect x="1002" y="686" width="30" height="4" rx="2" fill="#72F1B8"/></g><g><rect x="1060" y="596" width="196" height="106" rx="14" fill="rgba(255,255,255,0.045)" stroke="rgba(255,255,255,0.09)"/><rect x="1060" y="596" width="196" height="3" rx="1.5" fill="transparent"/><text x="1074" y="627" font-family="ui-monospace,SFMono-Regular,Menlo,Consolas,monospace" font-size="18.5" font-weight="600" fill="transparent">system</text><rect x="1074" y="686" width="30" height="4" rx="2" fill="transparent"/><rect x="1108" y="686" width="30" height="4" rx="2" fill="transparent"/><rect x="1142" y="686" width="30" height="4" rx="2" fill="transparent"/><rect x="1176" y="686" width="30" height="4" rx="2" fill="transparent"/><rect x="1210" y="686" width="30" height="4" rx="2" fill="transparent"/></g><g><rect x="20" y="714" width="196" height="106" rx="14" fill="rgba(255,255,255,0.045)" stroke="rgba(255,255,255,0.09)"/><rect x="20" y="714" width="196" height="3" rx="1.5" fill="#82AAFF"/><text x="34" y="745" font-family="ui-monospace,SFMono-Regular,Menlo,Consolas,monospace" font-size="18.5" font-weight="600" fill="#C8D3F5">tokyonight</text><rect x="34" y="804" width="30" height="4" rx="2" fill="#82AAFF"/><rect x="68" y="804" width="30" height="4" rx="2" fill="#FF966C"/><rect x="102" y="804" width="30" height="4" rx="2" fill="#FF757F"/><rect x="136" y="804" width="30" height="4" rx="2" fill="#FF966C"/><rect x="170" y="804" width="30" height="4" rx="2" fill="#C3E88D"/></g><g><rect x="228" y="714" width="196" height="106" rx="14" fill="rgba(255,255,255,0.045)" stroke="rgba(255,255,255,0.09)"/><rect x="228" y="714" width="196" height="3" rx="1.5" fill="#0070F3"/><text x="242" y="745" font-family="ui-monospace,SFMono-Regular,Menlo,Consolas,monospace" font-size="18.5" font-weight="600" fill="#EDEDED">vercel</text><rect x="242" y="804" width="30" height="4" rx="2" fill="#0070F3"/><rect x="276" y="804" width="30" height="4" rx="2" fill="#8E4EC6"/><rect x="310" y="804" width="30" height="4" rx="2" fill="#E5484D"/><rect x="344" y="804" width="30" height="4" rx="2" fill="#FFB224"/><rect x="378" y="804" width="30" height="4" rx="2" fill="#46A758"/></g><g><rect x="436" y="714" width="196" height="106" rx="14" fill="rgba(255,255,255,0.045)" stroke="rgba(255,255,255,0.09)"/><rect x="436" y="714" width="196" height="3" rx="1.5" fill="#FFC799"/><text x="450" y="745" font-family="ui-monospace,SFMono-Regular,Menlo,Consolas,monospace" font-size="18.5" font-weight="600" fill="#FFF">vesper</text><rect x="450" y="804" width="30" height="4" rx="2" fill="#FFC799"/><rect x="484" y="804" width="30" height="4" rx="2" fill="#FFC799"/><rect x="518" y="804" width="30" height="4" rx="2" fill="#FF8080"/><rect x="552" y="804" width="30" height="4" rx="2" fill="#FFC799"/><rect x="586" y="804" width="30" height="4" rx="2" fill="#99FFE4"/></g><g><rect x="644" y="714" width="196" height="106" rx="14" fill="rgba(255,255,255,0.045)" stroke="rgba(255,255,255,0.09)"/><rect x="644" y="714" width="196" height="3" rx="1.5" fill="#8CD0D3"/><text x="658" y="745" font-family="ui-monospace,SFMono-Regular,Menlo,Consolas,monospace" font-size="18.5" font-weight="600" fill="#DCDCCC">zenburn</text><rect x="658" y="804" width="30" height="4" rx="2" fill="#8CD0D3"/><rect x="692" y="804" width="30" height="4" rx="2" fill="#93E0E3"/><rect x="726" y="804" width="30" height="4" rx="2" fill="#CC9393"/><rect x="760" y="804" width="30" height="4" rx="2" fill="#F0DFAF"/><rect x="794" y="804" width="30" height="4" rx="2" fill="#7F9F7F"/></g>
</svg>